# xmcd CD database file
#
# Track frame offsets:
#	150
#	16547
#	35894
#	51941
#	69937
#	86433
#	102105
#	116577
#	129699
#	147096
#	162618
#	179939
#	195386
#	214386
#
# Disc length: 3046 seconds
#
# Revision: 2
# Processed by: cddbd v1.5.1PL0 Copyright (c) Steve Scherf et al.
# Submitted via: CDex 1.51
#
DISCID=cb0be40e
DTITLE=Various Artist - Kultschlager der 80er - CD 1
DYEAR=2000
DGENRE=Deutscher Schlager
TTITLE0=Hello again - Howard Carpendale 
TTITLE1=Ich wollt nur mal mit dir reden - Daliah Lavi 
TTITLE2=Leb wohl - Michael Holm 
TTITLE3=Kein Wort zuviel - Jürgen Renfordt and Denise
TTITLE4=Nachts hör ich dich manchmal weinen - Helmut Frey 
TTITLE5=Sandy Goodbye - Michael Stein 
TTITLE6=Wini Wini - Babaloo
TTITLE7=Ja ja die Katja die hat ja - Heino
TTITLE8=Schenk mir keine Rosen - Denise 
TTITLE9=Rote Rosen rote Lippen roter Wein - Florian Haidt
TTITLE10=Aus Liebe nie wieder sterben - Oliver Simon
TTITLE11=Xanadu - Ireen Sheer
TTITLE12=Herz an Herz Gefühl - Drafi Deutscher
TTITLE13=Gunter Gabriel - Hey Boss ich brauch mehr Geld
EXTD=YEAR: 2000
EXTT0=
EXTT1=
EXTT2=
EXTT3=
EXTT4=
EXTT5=
EXTT6=
EXTT7=
EXTT8=
EXTT9=
EXTT10=
EXTT11=
EXTT12=
EXTT13=
PLAYORDER=
